<svg width="30" height="30" viewBox="0 0 30 30" fill="none" xmlns="http://www.w3.org/2000/svg"
	class="icon_pointer" data-v-fcb46f78="">
	<path fill-rule="evenodd" clip-rule="evenodd"
		d="M23.231 23.334a1.588 1.588 0 0 0-.103-.015c-1.01-.188-1.87-.569-2.65-1.351a4.824 4.824 0 0 1-.165-.172.408.408 0 1 0-.52.625c.04.037.08.076.118.114.764.765 1.138 1.602 1.335 2.589a1.685 1.685 0 0 0 .058.346 1.704 1.704 0 0 0 2.852.758 1.712 1.712 0 0 0-.925-2.895zM26.462 18.883a1.704 1.704 0 0 0-.49 1.03c-.188 1.01-.567 1.873-1.348 2.656a5.406 5.406 0 0 1-.172.164.41.41 0 0 0 .577.578.437.437 0 0 0 .047-.057c.038-.04.075-.08.114-.118a5.24 5.24 0 0 1 2.689-1.443 1.643 1.643 0 0 0 .346-.058c.277-.075.434-.117.65-.334a1.712 1.712 0 0 0 0-2.418 1.704 1.704 0 0 0-2.413 0zM21.544 16.571a1.697 1.697 0 0 0 1.028.491c1.01.188 1.87.569 2.65 1.351.057.056.112.114.165.172a.408.408 0 1 0 .52-.625 6.05 6.05 0 0 1-.118-.114c-.764-.765-1.139-1.602-1.336-2.589a1.568 1.568 0 0 0-.056-.346 1.704 1.704 0 0 0-2.852-.758 1.713 1.713 0 0 0 0 2.418zM19.981 20.097c.189-1.011.568-1.873 1.349-2.656.056-.056.114-.11.172-.164a.41.41 0 0 0 0-.578.408.408 0 0 0-.624.056 5.07 5.07 0 0 1-.114.119c-.764.765-1.599 1.14-2.584 1.338a1.693 1.693 0 0 0-.346.057 1.712 1.712 0 0 0-.756 2.858 1.704 1.704 0 0 0 2.903-1.03z"
		fill="#ffffff"></path>
	<path
		d="M24.383 13.04a3.096 3.096 0 0 0-1.592-.438c-.392 0-.768.073-1.113.205-.318-4.02-4.19-7.087-8.912-7.087-4.929 0-8.703 3.342-8.703 7.622 0 2.325 1.117 4.385 3.11 5.83.107.077.15.15.197.325a.627.627 0 0 1 0 .407l-.426 1.66c-.042.155-.058.205.014.257.071.051.175-.013.243-.054l1.929-1.151c.095-.054.24-.126.442-.143.203-.016.296.023.457.07.886.252 1.785.41 2.737.41.887 0 1.745-.108 2.554-.31.02.97.577 1.809 1.385 2.23a12.983 12.983 0 0 1-3.793.559c-1.193 0-2.514-.229-3.63-.537L5.98 24.59c-.193.097-.469.174-.682.11-.569-.17-.798-.536-.72-1.135l.413-2.828c-2.247-1.9-3.64-4.626-3.64-7.425 0-5.615 5.18-10.156 11.561-10.156 6.278 0 11.31 4.396 11.471 9.884z"
		fill="#ffffff"></path>
</svg>